<?xml version="1.0" encoding="UTF-8" standalone="no"?><!DOCTYPE svg PUBLIC "-//W3C//DTD SVG 1.1//EN" "http://www.w3.org/Graphics/SVG/1.1/DTD/svg11.dtd"><svg width="100%" height="100%" viewBox="0 0 343 75" version="1.1" xmlns="http://www.w3.org/2000/svg" xmlns:xlink="http://www.w3.org/1999/xlink" xml:space="preserve" xmlns:serif="http://www.serif.com/" style="fill-rule:evenodd;clip-rule:evenodd;stroke-linejoin:round;stroke-miterlimit:2;"><g><path d="M178.612,43.739l9.131,-12.522l0,21.94l8.244,0l0,-35.48l-7.226,-0l-11.166,15.079l-11.036,-15.079l-7.253,-0l0,35.48l8.27,0l0,-22.018l8.975,12.6l2.061,0Zm24.81,9.418l8.114,0l-0,-27.053l-8.114,-0l0,27.053Zm-0.704,-34.332c-0,2.296 1.931,4.252 4.8,4.252c2.948,0 4.853,-1.904 4.853,-4.252c-0,-2.322 -1.905,-4.279 -4.827,-4.279c-2.922,0 -4.826,1.957 -4.826,4.279Zm23.062,20.793c0,-4.462 3.157,-7.436 7.201,-7.436c3.991,0 7.2,3 7.2,7.436c0,4.539 -3.182,7.513 -7.174,7.513c-3.992,0 -7.227,-3 -7.227,-7.513Zm-8.061,0.025c0,7.932 5.635,13.906 13.723,13.906c3.574,-0 6.444,-1.278 8.505,-2.87l-0,0.887c-0,2.505 -1.227,6.705 -6.653,6.705c-3.626,-0 -5.426,-1.774 -6.131,-3.939l-7.67,-0c0.313,4.982 4.018,10.618 13.827,10.618c9.262,-0 14.557,-5.74 14.557,-13.854l0,-24.992l-6.522,-0l-0.495,2.243c-1.983,-1.643 -4.931,-3.104 -8.636,-3.104c-8.922,-0 -14.505,6.496 -14.505,14.4Zm65.64,-1.043c-0,-8.348 -3.652,-13.357 -12.262,-13.357c-2.975,-0 -5.714,1.174 -7.749,2.609l0.052,-11.453l-8.009,-0l0,36.785l8.061,-0l0,-14.271c0,-3.939 2.479,-6.731 6.052,-6.731c3.548,0 5.741,1.383 5.741,6.575l0,14.4l8.114,0l-0,-14.557Zm8.375,-13.305l-4.098,1.565l-0,6.157l4.306,0l0,9.574c0,9.105 5.009,10.749 11.087,10.749l5.244,0l0.051,-6.6l-4.512,-0c-2.167,-0 -3.837,-0.861 -3.837,-4.227l0,-9.496l7.855,0l-0,-6.913l-7.855,-0l0,-7.514l-5.789,0.052l-2.452,6.653Zm40.775,0.835l-6.417,16.07l-0.444,-1.669l-5.845,-14.401l-8.896,-0l10.905,25.358l-5.113,10.957l8.714,0l15.757,-36.341l-8.661,0.026Z" style="fill-rule:nonzero;"/><path d="M23.326,0.949l33.23,24.329l33.23,-24.329l22.252,41.537l-23.439,23.439l-0,-28.766l-9.198,-2.09l-10.384,34.12l-12.461,5.34l-12.461,-5.34l-10.385,-34.12l-9.197,2.09l-0,28.766l-23.439,-23.439l22.252,-41.537Z" style="fill-rule:nonzero;"/><path d="M33.71,35.068l-5.192,-17.06l-27.444,24.478l32.636,-7.418Z" style="fill-rule:nonzero;"/><path d="M79.402,35.068l5.192,-17.06l27.444,24.478l-32.636,-7.418Z" style="fill-rule:nonzero;"/><path d="M33.711,35.068l-10.384,-34.12l-3.814,7.121l8.858,28.213l5.34,-1.214Z" style="fill-opacity:0.5;fill-rule:nonzero;"/><path d="M1.074,42.486l23.439,-5.328l-0,28.766l-19.285,-19.285l-4.154,-4.153Z" style="fill-rule:nonzero;"/><path d="M112.038,42.472l-23.439,-5.327l0,28.766l23.439,-23.439Z" style="fill-rule:nonzero;"/><path d="M1.074,42.486l23.439,-5.328l-0,5.328l-19.285,4.153l-4.154,-4.153Z" style="fill-rule:nonzero;"/><path d="M112.038,42.486l-23.439,-5.328l0,5.328l19.286,4.153l4.153,-4.153Z" style="fill-rule:nonzero;"/><path d="M23.327,0.948l33.229,24.329l33.23,-24.329l-20.769,68.24l-12.461,5.34l-12.461,-5.34l-20.768,-68.24Z" style="fill-rule:nonzero;"/><path d="M56.557,74.529l-12.462,-5.341l-15.576,-51.18l28.038,45.543l28.037,-45.543l-15.576,51.18l-12.461,5.341Z" style="fill-rule:nonzero;"/><path d="M56.555,74.528l-12.461,-5.34l12.461,-5.637l12.462,5.637l-12.462,5.34Z" style="fill-rule:nonzero;"/><path d="M23.326,0.949l33.23,24.329l33.23,-24.329l22.252,41.537l-23.439,23.439l-0,-28.766l-9.198,-2.09l-10.384,34.12l-12.461,5.34l-12.461,-5.34l-10.385,-34.12l-9.197,2.09l-0,28.766l-23.439,-23.439l22.252,-41.537Z" style="fill-rule:nonzero;"/></g></svg>